<?xml version="1.0" encoding="UTF-8" standalone="no"?>
<!-- Created with Inkscape (http://www.inkscape.org/) -->

<svg
   xmlns:dc="http://purl.org/dc/elements/1.1/"
   xmlns:cc="http://creativecommons.org/ns#"
   xmlns:rdf="http://www.w3.org/1999/02/22-rdf-syntax-ns#"
   xmlns:svg="http://www.w3.org/2000/svg"
   xmlns="http://www.w3.org/2000/svg"
   xmlns:sodipodi="http://sodipodi.sourceforge.net/DTD/sodipodi-0.dtd"
   xmlns:inkscape="http://www.inkscape.org/namespaces/inkscape"
   width="330mm"
   height="268mm"
   viewBox="0 0 330 268"
   version="1.1"
   id="svg8"
   inkscape:version="0.92.4 (fd57863, 2020-04-02)"
   sodipodi:docname="vcv.svg">
  <defs
     id="defs2" />
  <sodipodi:namedview
     id="base"
     pagecolor="#ffffff"
     bordercolor="#666666"
     borderopacity="1.0"
     inkscape:pageopacity="0.0"
     inkscape:pageshadow="2"
     inkscape:zoom="0.38691766"
     inkscape:cx="1168.8737"
     inkscape:cy="1104.901"
     inkscape:document-units="mm"
     inkscape:current-layer="layer5"
     showgrid="false"
     inkscape:window-width="2560"
     inkscape:window-height="1412"
     inkscape:window-x="1920"
     inkscape:window-y="0"
     inkscape:window-maximized="1" />
  <metadata
     id="metadata5">
    <rdf:RDF>
      <cc:Work
         rdf:about="">
        <dc:format>image/svg+xml</dc:format>
        <dc:type
           rdf:resource="http://purl.org/dc/dcmitype/StillImage" />
        <dc:title></dc:title>
      </cc:Work>
    </rdf:RDF>
  </metadata>
  <g
     inkscape:label="Layer 1"
     inkscape:groupmode="layer"
     id="layer1"
     transform="translate(0,-29)"
     style="display:inline">
    <path
       sodipodi:nodetypes="ccccccccccccsssssccsssscsscssscscssssscssssssssssscssscssscccscsssc"
       inkscape:connector-curvature="0"
       id="path3740"
       d="M 301.69036,-121.927 V -306.11479 H 531.34225 760.99413 V -121.927 62.26079 H 531.34225 301.69036 Z m 169.03311,103.83554 6.99448,-3.2027 -12.31522,-0.18932 c -29.29682,-0.45051 -49.4693,-19.55167 -49.4693,-46.84213 0,-27.04483 20.21773,-46.60692 48.16899,-46.60692 18.16006,0 13.25886,-5.13537 -6.24785,-6.54636 -18.64287,-1.3485 -32.29474,3.89605 -43.14831,16.576 -25.93575,30.30008 -14.96034,73.82022 21.94263,87.0079 10.94829,3.9125 25.28144,3.82985 34.07458,-0.19654 z m 213.99278,-5.31942 c 20.24956,-10.99939 31.43566,-35.93858 25.30209,-56.4106 -3.32711,-11.10489 -11.48626,-23.08719 -18.96895,-27.85727 -5.16173,-3.29051 -4.97619,-2.72486 1.62144,4.94324 7.50554,8.72331 12.34979,21.33359 12.33172,32.10131 -0.0117,7.39407 -9.5644,27.90426 -15.41325,33.09554 -13.90364,12.34051 -39.60735,16.87461 -56.3192,9.9346 l -8.66821,-3.59969 4.87499,4.91267 c 12.71031,12.80855 34.83761,13.96227 55.23937,2.8802 z M 541.83396,-53.26201 c 0,-3.81989 -21.21194,-10.27686 -33.80663,-10.29082 -21.11766,-0.0233 -23.18706,3.62747 -3.0889,5.44948 9.39282,0.85151 20.22536,2.48693 24.07232,3.63424 8.43912,2.51689 12.82321,2.92959 12.82321,1.2071 z m 27.97789,-8.38075 c 0,-1.46632 -12.59005,-14.87066 -27.97789,-29.78745 -23.51078,-22.79106 -27.9779,-28.23871 -27.9779,-34.11907 0,-3.8487 1.53745,-9.19265 3.41655,-11.87545 11.13999,-15.90456 48.79491,-16.5319 57.13312,-0.95185 1.32032,2.46706 2.40059,10.35791 2.40059,17.53522 0,9.71923 0.93617,13.40889 3.66821,14.45727 2.01751,0.77419 13.11235,-1.48942 24.65519,-5.03024 11.54284,-3.54083 29.03952,-7.11787 38.88151,-7.94898 17.34077,-1.46434 17.56653,-1.56007 7.29577,-3.09332 -12.84705,-1.91785 -35.1752,0.97969 -47.62082,6.17981 -11.00198,4.59692 -15.2224,3.42349 -15.2224,-4.23238 0,-8.02368 10.19883,-19.24373 20.47686,-22.52724 12.81858,-4.09515 13.21801,-5.50386 3.47499,-12.25578 -30.71828,-21.28779 -89.88554,-23.81625 -112.47721,-4.80661 -26.08076,21.94552 -16.72414,44.39465 30.05433,72.10866 10.70127,6.33998 23.77604,15.41859 29.05509,20.17472 10.92973,9.84703 10.76401,9.752 10.76401,6.17269 z m -2.3867,-69.71338 c -6.46973,-12.08878 -29.31573,-14.61374 -38.67291,-4.27416 l -4.39592,4.85745 13.10255,-1.63706 c 9.89181,-1.2359 14.74703,-0.74627 19.8134,1.99809 9.7807,5.29802 13.31762,4.96905 10.15288,-0.94432 z m 90.70347,-24.96036 c 1.37929,-3.52638 4.07792,-8.53894 5.99697,-11.13903 3.14397,-4.25968 3.0287,-5.48464 -1.16498,-12.38062 -5.41043,-8.89673 -15.51453,-13.71342 -32.94084,-15.70312 -19.73845,-2.25369 -33.23497,5.40456 -19.03756,10.8024 3.40887,1.29605 9.74041,5.46677 14.07006,9.26825 4.5434,3.98916 10.54892,6.92689 14.20258,6.9475 9.72894,0.0549 12.90655,3.14114 11.69977,11.36345 -1.35273,9.2168 3.66781,9.80547 7.174,0.84117 z"
       style="fill:#066aa0;stroke-width:2.33149123" />
  </g>
  <g
     inkscape:groupmode="layer"
     id="layer3"
     inkscape:label="Layer 3"
     style="display:inline">
    <path
       inkscape:connector-curvature="0"
       id="path3742"
       d="M 301.69035,-150.92701 V -335.1148 H 531.34224 760.99413 V -150.92701 33.260792 H 531.34224 301.69035 Z m 169.03311,103.835542 6.99448,-3.20271 -12.31522,-0.1893 c -29.29682,-0.45051 -49.4693,-19.55168 -49.4693,-46.84214 0,-27.044832 20.21773,-46.606922 48.16899,-46.606922 18.16006,0 13.25886,-5.13537 -6.24785,-6.54636 -18.64287,-1.3485 -32.29474,3.89605 -43.14831,16.576 -25.93575,30.30008 -14.96034,73.820232 21.94263,87.007912 10.94829,3.9125 25.28144,3.82984 34.07458,-0.19654 z m 71.11049,-35.17055 c 0,-3.81989 -21.21194,-10.27686 -33.80663,-10.29082 -21.11766,-0.0233 -23.18706,3.62747 -3.0889,5.44948 9.39282,0.85151 20.22536,2.48693 24.07232,3.63424 8.43912,2.51689 12.82321,2.92959 12.82321,1.2071 z m 25.5912,-78.094132 c -6.46974,-12.08878 -29.31574,-14.61374 -38.67292,-4.27416 l -4.39592,4.85745 13.10255,-1.63706 c 9.89181,-1.2359 14.74703,-0.74627 19.8134,1.99809 9.7807,5.29802 13.31762,4.96905 10.15289,-0.94432 z"
       style="fill:#02a2c8;stroke-width:2.33149123" />
  </g>
  <g
     inkscape:groupmode="layer"
     id="layer5"
     inkscape:label="Layer 5"
     style="display:none" />
  <g
     inkscape:groupmode="layer"
     id="layer2"
     inkscape:label="Layer 2"
     style="display:none">
    <path
       inkscape:connector-curvature="0"
       id="path3738"
       d="M 301.69035,-150.92701 V -335.1148 H 531.34224 760.99413 V -150.92701 33.260792 H 531.34224 301.69035 Z m 375.11411,106.173162 c 14.67204,-5.1766 25.15044,-14.40905 31.81598,-28.03294 14.00786,-28.631112 2.19128,-59.943182 -28.24017,-74.831912 -18.54607,-9.07374 -49.59717,-10.5798 -70.68044,-3.42817 -8.19616,2.7802 -15.77706,4.17997 -16.84642,3.11061 -4.30599,-4.30598 6.83059,-16.49072 19.33567,-21.15553 6.82704,-2.54671 12.41279,-6.0588 12.41279,-7.80463 0,-5.1385 -21.43302,-17.96667 -39.35145,-23.55274 -23.69826,-7.38795 -56.11506,-7.2382 -73.1235,0.3378 -13.61179,6.06303 -28.3871,20.76058 -28.94286,28.79052 -1.71628,24.79788 4.86458,32.68457 50.81526,60.89843 19.67,12.077442 35.81253,26.435092 35.81253,31.852752 0,1.2377 1.7049,2.25036 3.78867,2.25036 2.9789,0 3.48507,-1.51792 2.36832,-7.10175 -1.97131,-9.85647 -9.44145,-18.959002 -34.16821,-41.634702 -24.00082,-22.00998 -27.28047,-27.54146 -22.17881,-37.40698 4.10199,-7.93236 13.96514,-11.77919 30.20149,-11.77919 17.82319,0 21.51003,3.64112 23.47239,23.18164 2.30833,22.98545 3.31155,23.42031 32.75724,14.19931 21.85146,-6.84285 26.58928,-7.53621 45.36302,-6.63862 18.59598,0.88908 22.05596,1.77689 30.63997,7.862 12.31903,8.73281 18.31943,19.97123 18.31943,34.31128 0,17.703432 -8.68373,31.739272 -24.48067,39.568962 -23.798,11.79539 -47.98666,4.62743 -64.87557,-19.22493 l -4.12711,-5.82873 1.33398,8.15077 c 1.84632,11.28102 12.27018,23.29945 26.80182,30.9017 13.95356,7.29983 26.95297,8.23478 41.77665,3.00469 z m -203.67462,-2.30283 c 11.51268,-4.81031 10.02863,-6.21684 -4.72936,-4.48231 -51.90736,6.10066 -72.98613,-62.408752 -26.82066,-87.171512 8.87901,-4.76263 12.77021,-5.45547 25.31483,-4.50741 12.61056,0.95304 14.34238,0.6395 11.60237,-2.1005 -7.67932,-7.67932 -40.61751,-7.99943 -50.65768,-0.49231 -11.96705,8.94786 -19.44997,18.23144 -23.56903,29.24063 -5.30771,14.18612 -5.80306,23.062502 -1.99609,35.769012 8.26482,27.58551 44.40411,44.79652 70.85562,33.7444 z m -4.06357,-29.84549 c 3.29834,-3.98695 19.10607,-46.265382 19.12672,-51.155212 0.009,-2.16838 -0.93783,-4.53242 -2.10443,-5.25342 -5.14312,-3.17862 -9.71177,2.71223 -15.43761,19.90537 -3.38238,10.15639 -7.02866,17.922972 -8.10283,17.259112 -1.07418,-0.66387 -4.25763,-8.277562 -7.07434,-16.919292 -6.4073,-19.65771 -10.01336,-24.08929 -15.30005,-18.8026 -3.42911,3.42911 -3.01846,5.69525 4.97561,27.45785 4.79226,13.046132 10.22121,25.228272 12.06434,27.071402 4.12469,4.12469 8.66328,4.29195 11.85259,0.43679 z m 190.0288,-0.43679 c 1.84314,-1.84313 7.2721,-14.02527 12.06437,-27.071402 8.11916,-22.10317 8.44867,-23.98075 4.83312,-27.54111 -3.59691,-3.542 -4.11933,-3.49821 -7.15815,0.59998 -1.8029,2.43145 -5.51405,11.14014 -8.24701,19.35265 -2.73296,8.21251 -6.11169,14.550942 -7.50832,14.085392 -1.39665,-0.46556 -5.0229,-8.297132 -8.05836,-17.403512 -5.16083,-15.48246 -9.77916,-21.09721 -14.8005,-17.99384 -3.61677,2.23529 -2.38236,8.41447 6.26174,31.3451 10.94266,29.028062 14.42233,32.817552 22.61311,24.626742 z m -114.92963,-3.77442 c 0,-7.72039 -38.12927,-15.27854 -53.10252,-10.52622 -10.3951,3.29927 -4.76169,5.99853 12.88429,6.17351 9.93799,0.0986 22.26574,1.56231 27.39503,3.25278 12.047,3.97037 12.8232,4.03695 12.8232,1.09993 z m 25.64641,-75.435112 c 0,-1.80949 -3.22802,-6.00617 -7.17338,-9.32596 -8.40157,-7.06948 -23.64622,-8.21798 -31.94321,-2.40654 -6.03497,4.22706 -7.19662,11.63157 -1.4807,9.43816 10.3857,-3.98536 21.0855,-3.79047 28.93982,0.52714 10.24634,5.63253 11.65747,5.84645 11.65747,1.7672 z m 86.41845,-20.10696 c 2.48033,-1.32743 4.50971,-3.80887 4.50971,-5.5143 0,-1.70543 2.09833,-5.76839 4.66297,-9.02881 2.56466,-3.26041 4.66299,-8.22808 4.66299,-11.03928 0,-7.20851 -13.65941,-20.00887 -24.59006,-23.04356 -14.78177,-4.10389 -34.65923,-3.27547 -40.80439,1.70058 -6.30893,5.10868 -4.92688,8.10618 6.68248,14.49344 4.7217,2.59778 12.14988,7.30406 16.50704,10.45839 4.35718,3.15432 10.32798,5.73514 13.26848,5.73514 10.11756,0 9.74156,10.11789 -0.47125,12.68114 -3.16545,0.79448 -5.12596,2.46292 -4.35668,3.70765 1.84751,2.98931 14.23683,2.89582 19.92871,-0.15039 z"
       style="fill:#101314;stroke-width:2.33149123" />
  </g>
</svg>
