<?xml version="1.0" encoding="UTF-8" standalone="no"?>
<!-- Created with Inkscape (http://www.inkscape.org/) -->

<svg
   xmlns:dc="http://purl.org/dc/elements/1.1/"
   xmlns:cc="http://creativecommons.org/ns#"
   xmlns:rdf="http://www.w3.org/1999/02/22-rdf-syntax-ns#"
   xmlns:svg="http://www.w3.org/2000/svg"
   xmlns="http://www.w3.org/2000/svg"
   xmlns:sodipodi="http://sodipodi.sourceforge.net/DTD/sodipodi-0.dtd"
   xmlns:inkscape="http://www.inkscape.org/namespaces/inkscape"
   width="139.08661"
   height="83"
   viewBox="0 0 36.800022 21.960431"
   version="1.1"
   id="svg4676"
   inkscape:version="0.92.4 (fd57863, 2020-04-02)"
   sodipodi:docname="vcv.svg">
  <defs
     id="defs4670" />
  <sodipodi:namedview
     id="base"
     pagecolor="#ffffff"
     bordercolor="#666666"
     borderopacity="1.0"
     inkscape:pageopacity="0.0"
     inkscape:pageshadow="2"
     inkscape:zoom="1.4142136"
     inkscape:cx="697.83039"
     inkscape:cy="58.43136"
     inkscape:document-units="mm"
     inkscape:current-layer="layer1"
     showgrid="false"
     units="px"
     inkscape:window-width="2560"
     inkscape:window-height="1412"
     inkscape:window-x="1920"
     inkscape:window-y="0"
     inkscape:window-maximized="1" />
  <metadata
     id="metadata4673">
    <rdf:RDF>
      <cc:Work
         rdf:about="">
        <dc:format>image/svg+xml</dc:format>
        <dc:type
           rdf:resource="http://purl.org/dc/dcmitype/StillImage" />
        <dc:title></dc:title>
      </cc:Work>
    </rdf:RDF>
  </metadata>
  <g
     inkscape:label="Layer 1"
     inkscape:groupmode="layer"
     id="layer1"
     transform="translate(0,-275.03858)">
    <path
       style="fill:#4faedc;fill-opacity:1;stroke-width:0.26458332"
       d="m 28.339005,296.3445 c -1.936533,-0.70899 -4.122153,-3.07043 -4.080605,-4.40887 0.0058,-0.1877 0.199321,0.0159 0.42999,0.45248 0.230666,0.43657 0.612854,1.01478 0.849302,1.28493 1.36947,1.56464 4.572688,1.98595 6.672146,0.87757 3.419544,-1.80531 3.853701,-6.50768 0.791372,-8.57138 -2.031455,-1.369 -5.446427,-1.45418 -8.998184,-0.22444 -2.520915,0.87282 -3.135486,0.87637 -3.350589,0.0193 -0.09123,-0.36348 -0.0911,-0.85571 2.91e-4,-1.09386 0.342266,-0.89193 -0.148529,-2.24575 -1.00304,-2.76681 -1.534242,-0.93554 -4.765321,-0.47326 -5.434746,0.77757 -0.718617,1.34275 -0.419426,1.90303 2.495291,4.67281 3.154415,2.99757 3.834167,3.89162 3.819969,5.02428 l -0.01,0.79375 -0.512699,-0.97056 c -0.593201,-1.12296 -2.053954,-2.35739 -4.490996,-3.79519 -3.814094,-2.25022 -5.291667,-3.79246 -5.291667,-5.52324 0,-1.73441 1.818967,-3.61106 4.159586,-4.2915 3.534154,-1.02741 9.814399,0.38365 11.672575,2.62262 0.301427,0.3632 0.227875,0.43944 -0.567989,0.58874 -1.394076,0.26153 -2.553123,1.0916 -2.992468,2.1431 -0.218049,0.52187 -0.332275,1.01303 -0.253836,1.09147 0.07844,0.0784 0.921352,-0.11303 1.873138,-0.42548 2.375008,-0.77966 5.627888,-0.77952 7.728759,3.2e-4 3.137524,1.16466 4.969959,4.12387 4.328514,6.99016 -0.432721,1.93361 -1.531585,3.3503 -3.240995,4.17841 -1.80866,0.87618 -3.2409,1.04886 -4.593166,0.55378 z"
       id="path4711"
       inkscape:connector-curvature="0" />
    <path
       style="fill:#a2a5ac;fill-opacity:1;stroke-width:0.26458332"
       d="m 4.8665398,296.12778 c -2.173506,-0.81094 -3.699834,-2.68531 -4.07642202,-5.00595 -0.357645,-2.20391 1.37278702,-5.35338 3.46293002,-6.3027 1.976707,-0.8978 5.217513,-0.53939 6.2364242,0.68972 0.382321,0.46119 0.363824,0.46166 -0.5043912,0.0128 -0.661453,-0.34197 -1.333267,-0.43844 -2.524798,-0.36257 -1.821657,0.11599 -2.84671,0.68964 -4.04902,2.26595 -0.648498,0.85023 -1.035232,1.73578 -1.030988,2.9347 0.0058,1.62667 0.579165,2.92366 2.369056,4.37234 1.20763,0.97741 3.167264,1.21669 4.936089,0.60272 0.6491622,-0.22533 1.2133772,-0.37661 1.2538112,-0.33618 0.04044,0.0404 -0.409191,0.34482 -0.9991692,0.6764 -1.339863,0.75305 -3.703365,0.96397 -5.073493,0.45277 z"
       id="path4709"
       inkscape:connector-curvature="0"
       sodipodi:nodetypes="cssscssssccscc" />
    <path
       style="fill:#3f71db;fill-opacity:1;stroke-width:0.26458332"
       d="m 6.9285108,291.92509 c -0.856771,-2.05241 -1.837488,-5.20693 -1.670661,-5.37376 0.467984,-0.46798 1.015656,0.30235 1.692438,2.38051 0.405811,1.24611 0.81776,2.26565 0.915442,2.26565 0.09768,0 0.563991,-1.07156 1.036242,-2.38125 0.775466,-2.15059 1.2902742,-2.81164 1.6881972,-2.16779 0.126828,0.20521 -1.5988722,5.12659 -2.0358272,5.80581 -0.41109,0.63901 -1.252501,0.36515 -1.625831,-0.52917 z"
       id="path4707"
       inkscape:connector-curvature="0" />
    <path
       style="fill:#a2a5ac;fill-opacity:1;stroke-width:0.26458332"
       d="m 16.045722,292.19927 c -1.031404,-0.38257 -2.140634,-0.54685 -3.808744,-0.56409 -2.117048,-0.0219 -2.2765622,-0.0572 -1.5875,-0.35136 1.74752,-0.74607 5.546481,-0.17761 6.60113,0.98776 0.255546,0.28237 0.41641,0.50307 0.357476,0.49043 -0.05894,-0.0126 -0.761997,-0.26587 -1.562362,-0.56274 z"
       id="path4705"
       inkscape:connector-curvature="0" />
    <path
       style="fill:#3f71db;fill-opacity:1;stroke-width:0.26458332"
       d="m 28.830794,292.46703 c -0.146026,-0.18893 -0.699516,-1.56826 -1.229982,-3.06518 -0.826408,-2.33205 -0.90564,-2.74426 -0.553458,-2.8794 0.584946,-0.22447 0.751174,0.042 1.554949,2.49223 0.393824,1.20054 0.798126,2.18281 0.898451,2.18281 0.100322,0 0.550595,-1.0418 1.000606,-2.31511 0.525553,-1.48705 0.973026,-2.3457 1.251072,-2.40065 0.657868,-0.13001 0.541308,0.5892 -0.571294,3.52513 -0.778724,2.05489 -1.123521,2.66346 -1.543756,2.72475 -0.297598,0.0434 -0.660564,-0.0757 -0.806588,-0.26458 z"
       id="path4703"
       inkscape:connector-curvature="0" />
    <path
       style="fill:#a2a5ac;fill-opacity:1;stroke-width:0.26458332"
       d="m 19.281343,283.73485 c -0.640848,-0.64369 -2.339113,-0.82046 -3.844803,-0.4002 -0.682465,0.19049 -0.71897,0.16492 -0.458703,-0.3214 0.343653,-0.64212 2.092324,-1.20846 3.015733,-0.9767 0.961248,0.24126 2.098054,1.29568 1.984585,1.84077 -0.08554,0.41094 -0.161264,0.39546 -0.696812,-0.14247 z"
       id="path4701"
       inkscape:connector-curvature="0" />
    <path
       style="fill:#4faedc;fill-opacity:1;stroke-width:0.26458332"
       d="m 27.555098,281.4079 c -0.444993,-0.19122 -0.393862,-0.23035 0.321421,-0.24598 1.624301,-0.0355 1.824892,-1.87068 0.20447,-1.87068 -0.592246,0 -1.211017,-0.27634 -1.925456,-0.8599 -0.579016,-0.47294 -1.431432,-1.06714 -1.894257,-1.32045 -1.016546,-0.55635 -0.872308,-0.88549 0.556667,-1.27027 3.130841,-0.84305 7.714351,1.78071 6.038446,3.45662 -0.287743,0.28774 -0.523166,0.70176 -0.523166,0.92004 0,1.07091 -1.530393,1.72679 -2.778125,1.19062 z"
       id="path4697"
       inkscape:connector-curvature="0" />
  </g>
</svg>
