<?xml version="1.0" encoding="UTF-8" standalone="no"?>
<svg
   xmlns:dc="http://purl.org/dc/elements/1.1/"
   xmlns:cc="http://creativecommons.org/ns#"
   xmlns:rdf="http://www.w3.org/1999/02/22-rdf-syntax-ns#"
   xmlns:svg="http://www.w3.org/2000/svg"
   xmlns="http://www.w3.org/2000/svg"
   xmlns:sodipodi="http://sodipodi.sourceforge.net/DTD/sodipodi-0.dtd"
   xmlns:inkscape="http://www.inkscape.org/namespaces/inkscape"
   inkscape:version="1.0 (6e3e5246a0, 2020-05-07)"
   sodipodi:docname="victoria.svg"
   id="svg2383"
   version="1.1"
   height="226"
   width="305.70081">
  <metadata
     id="metadata2387">
    <rdf:RDF>
      <cc:Work
         rdf:about="">
        <dc:format>image/svg+xml</dc:format>
        <dc:type
           rdf:resource="http://purl.org/dc/dcmitype/StillImage" />
        <dc:title>victorianpost</dc:title>
      </cc:Work>
    </rdf:RDF>
  </metadata>
  <sodipodi:namedview
     inkscape:current-layer="svg2383"
     inkscape:window-maximized="0"
     inkscape:window-y="27"
     inkscape:window-x="67"
     inkscape:cy="-33.819264"
     inkscape:cx="465.82963"
     inkscape:zoom="1.1061539"
     showgrid="false"
     id="namedview2385"
     inkscape:window-height="958"
     inkscape:window-width="1801"
     inkscape:pageshadow="2"
     inkscape:pageopacity="0"
     guidetolerance="10"
     gridtolerance="10"
     objecttolerance="10"
     borderopacity="1"
     bordercolor="#666666"
     pagecolor="#ffffff" />
  <title
     id="title2371">victorianpost</title>
  <defs
     id="defs2375">
    <symbol
       height="297mm"
       id="svg_6"
       width="210mm">
      <path
         d="m 267.74283,425.00186 -7.53125,105.65622 0.0312,0.125 3.46875,2.4375 3.03125,3.03125 1.15625,2.15625 -0.75,1.3125 0.75,0.5625 0.71875,-0.875 1.71875,0.875 0.28125,1.15625 0.875,-1.15625 1,0.59375 0.5625,-0.4375 -0.84375,-1.875 1.71875,-1.3125 1.59375,-0.28125 3.71875,1 3.90625,3.1875 2,0.28125 0.75,-0.875 2.15625,-0.125 1.84375,1.5625 0.875,-0.125 6.625,6.03125 0.5,-0.0937 0.0625,0.25 2.625,0.5625 1.71875,1.15625 2.4375,2.875 2.59375,-0.125 1.3125,0.84375 1.4375,2.1875 h 1 l 2.4375,-1.75 0.4375,-1.15625 3.90625,-1.4375 4.3125,-4.75 h 1.28125 l 0.71875,-0.84375 2.46875,-0.875 1.84375,-1.71875 2.1875,-0.875 1.4375,0.28125 v -0.125 l 0.84375,-0.3125 1.4375,0.71875 1.03125,-0.28125 0.5625,-0.5625 -1.15625,-0.15625 1.3125,-1.28125 0.28125,0.5625 0.5625,-1.15625 -0.40625,-1.5625 -1.15625,-0.3125 -1.75,1.03125 -1.5625,0.125 -1.03125,-1.15625 -0.28125,0.875 -1,-0.4375 v -1 l 1.28125,-1.15625 -0.125,0.71875 1.28125,-0.125 0.59375,0.40625 0.28125,-1.125 6.1875,-2.59375 0.59375,-1.3125 1.125,-0.28125 0.59375,0.4375 v -0.71875 l 0.4375,-0.15625 1,0.59375 0.84375,3.71875 0.59375,-0.125 0.5625,0.84375 0.3125,3.1875 -2.1875,1.71875 -1,2.4375 -1.5625,0.875 -2.1875,0.4375 -3.28125,-2.15625 3.4375,3.75 0.875,1.84375 h 3 l 0.4375,-1.28125 1.75,-1 2.15625,0.71875 -0.875,-1 h 0.71875 l -0.28125,-2.03125 0.5625,0.125 1,-2.15625 h 1.46875 l -0.59375,0.3125 0.4375,0.28125 0.4375,-0.4375 2,0.15625 0.875,0.5625 0.59375,1.75 -0.3125,1 0.71875,0.4375 -0.28125,1 -0.71875,0.71875 -2.03125,-0.59375 0.15625,2.46875 -1.59375,0.4375 0.15625,0.40625 2.15625,0.71875 2.15625,3.75 2.875,-1 1.75,0.4375 0.28125,1.28125 -0.71875,-1 -1.4375,-0.5625 2.3125,3.71875 0.71875,3.59375 1.5625,-0.5625 0.15625,-1 0.84375,-0.71875 2.75,1.5625 -0.875,-1.4375 v -0.5625 l 0.71875,0.28125 1.59375,4.90625 -0.4375,0.4375 1.4375,1.28125 0.3125,0.71875 -0.59375,0.71875 0.875,1.3125 1.15625,-0.15625 0.28125,-1.59375 h 1 v -1 l -0.875,-0.28125 1.59375,-2.59375 0.15625,-3.03125 -0.71875,-0.5625 -0.71875,1.875 -2.59375,1.125 -0.15625,-2.71875 h -0.875 l -0.71875,-1.71875 1.03125,-1.15625 1,-0.15625 v 0.59375 l 1.71875,-0.71875 0.875,1.28125 1.875,-0.71875 1.28125,0.5625 v -0.5625 h 0.59375 v 0.5625 l 0.125,-0.5625 1.3125,-0.15625 0.125,-0.5625 0.3125,0.4375 -0.4375,0.28125 1,0.15625 0.4375,-0.59375 1.28125,0.4375 v -0.875 l 1.03125,-0.40625 1.5625,0.28125 0.59375,-0.4375 -1.03125,1 17,-13.25 4.46875,-2.4375 3.75,-1 -2.875,-0.15625 -0.59375,0.71875 -0.84375,0.15625 v 0.28125 l -0.59375,0.15625 -1.28125,1 0.5625,-1.15625 -3.3125,2.15625 -2.4375,0.28125 0.4375,-1.28125 1.28125,-0.4375 -0.5625,0.5625 1.15625,0.15625 2.28125,-1.71875 0.71875,0.125 -0.28125,-0.4375 0.875,-0.28125 -0.71875,-0.125 1,0.125 v -0.84375 l -0.71875,-0.15625 1.28125,-0.71875 -1.4375,0.5625 -0.28125,-1 0.28125,0.59375 1.03125,-0.59375 1.4375,0.4375 1.15625,1.4375 0.40625,-0.5625 1.75,0.40625 2.875,-0.28125 -0.28125,-1.15625 0.5625,0.71875 0.59375,-0.84375 0.40625,0.4375 -1.125,0.84375 5.3125,-0.71875 7.90625,1.3125 1.75,-0.59375 6.3125,0.59375 2.46875,0.28125 0.84375,0.875 1.75,-0.59375 2.71875,0.4375 0.71875,-0.71875 3.59375,-1.15625 2.46875,-2.59375 -0.15625,-0.875 -0.40625,-0.71875 -0.75,0.15625 0.75,-0.28125 -0.875,-0.71875 1.28125,0.28125 -0.125,0.875 0.5625,-0.15625 0.15625,-0.71875 h 0.84375 l -0.71875,0.875 0.3125,0.28125 -0.875,0.71875 4.3125,-0.59375 0.0312,-0.125 -35.875,-23.62497 0.71875,-1.71875 1,-0.4375 1.4375,-2.15625 -0.28125,-1.03125 -1.4375,-0.71875 0.21875,-2.28125 -1.53125,-2.59375 0.71875,-1.71875 -0.4375,-0.3125 0.75,-4.4375 -0.875,-0.9375 0.4375,-1.53125 -1.4375,-0.15625 -0.3125,-1.4375 -2.375,-1.125 -4.09375,-0.15625 -1.15625,-0.4375 0.71875,0.59375 -0.71875,0.40625 -1,-1.71875 -1,0.28125 -1.03125,-0.4375 -1.21875,1.75 -1.0625,1 -0.4375,-0.5625 -3.03125,-0.4375 -0.4375,-1.03125 -1.71875,2.59375 -2,-1 -0.15625,0.875 -1.09375,-0.71875 -1.5,-0.15625 -0.4375,-0.84375 h -1.15625 l -0.28125,-1.03125 -1,0.28125 -1.3125,-1.28125 v -0.71875 l -1.21875,0.21875 -1.09375,-0.78125 -0.28125,0.84375 -1.28125,-0.84375 -1.59375,2.15625 -0.5625,-0.71875 -0.875,0.40625 -0.5625,-0.84375 -1.875,0.4375 v -0.59375 l -1,-0.125 0.125,-0.4375 -1,0.4375 -1.15625,-0.875 -1.3125,0.4375 -1.28125,-1.53125 -2.15625,0.53125 -0.59375,-0.875 -1.125,-0.28125 -0.4375,-0.875 h -0.4375 l -1,-1.15625 0.125,-0.5625 -0.5625,0.28125 -0.59375,-1.71875 -2.9375,0.40625 -3.53125,0.0312 -0.28125,-0.59375 -2.03125,0.15625 -0.5625,-0.71875 -1.15625,0.125 -2.3125,0.59375 -0.9375,2.9375 0.65625,2.65625 -0.875,0.15625 -1.71875,-0.71875 -1.4375,1.375 -1.71875,-0.21875 v -0.71875 l -0.71875,0.125 0.125,-0.84375 -0.71875,0.28125 -0.28125,-0.71875 -0.4375,0.71875 v -1.15625 h -0.71875 l -0.28125,-0.71875 -1,-0.5625 -1.09375,-1.75 -0.78125,-2 -0.5,-1.21875 -0.53125,-1.21875 -1.125,-0.4375 0.125,-0.4375 -0.71875,0.28125 -1,-1.875 -1.59375,-1.28125 -0.4375,-1.3125 -1.28125,-1.28125 -1.09375,-0.59375 -2.5,-1.5625 -0.875,-1.15625 -1.15625,-0.4375 0.15625,-0.875 h -1.15625 l -0.4375,-0.71875 -1,0.71875 -1.21875,-2.375 -0.0625,-1.9375 0.40625,-0.5625 -2.4375,-0.15625 -0.28125,-0.875 h -1.15625 l -0.15625,-1.4375 -0.84375,-1.125 -0.0937,-3.1875 0.3125,-1.5 0.78125,-1.8125 v -1.4375 l -1.59375,-0.15625 -0.5625,-0.5625 0.5625,-0.4375 h -1 l -0.15625,-0.71875 -1.15625,-0.4375 v -0.4375 l -0.28125,0.4375 -0.4375,-0.71875 -0.40625,0.28125 0.125,-0.5625 -0.4375,0.4375 -0.40625,-0.59375 -0.4375,0.59375 -0.28125,-0.4375 v 0.4375 l -1.09375,-0.875 -0.375,0.59375 -1,-1.3125 -0.84375,0.71875 -0.59375,-0.4375 0.28125,-1 -1.125,-2 -1.03125,0.40625 -0.28125,0.875 -1.15625,-0.28125 -0.28125,1.4375 0.4375,0.5625 -0.71875,0.15625 0.28125,1.15625 -0.4375,0.4375 -0.28125,-0.59375 -1,0.15625 0.5625,1 -0.5625,0.4375 -2.59375,-1.3125 0.5625,-2 -1,0.15625 0.28125,-0.875 -0.5625,-0.15625 -0.4375,-2.15625 -0.59375,-1.5625 h -0.71875 l 0.59375,-0.46875 -0.71875,-0.25 0.125,-1.90625 1.15625,-1.5625 -2.4375,-0.4375 0.125,-0.71875 -1.125,0.125 0.28125,-2.5625 -0.4375,-0.71875 -1.28125,-0.65625 -0.875,0.34375 -0.71875,-0.125 -0.15625,-1.15625 -1,-0.15625 0.28125,-0.71875 -0.5625,0.15625 0.125,0.5625 -0.84375,-0.4375 -0.28125,0.59375 -0.59375,-0.4375 -0.28125,0.4375 -0.5625,-0.71875 -0.59375,0.5625 -3.03125,-1.28125 -0.40625,0.5625 -0.3125,-0.5625 -1.59375,0.5625 -0.28125,0.875 -0.84375,-0.15625 0.1875,1.09375 -1.34375,-0.0625 -0.59375,0.5625 -0.125,-1.59375 -1.15625,0.28125 -1.71875,-1.71875 -0.875,0.71875 v -0.71875 l -1.3125,-0.84375 -0.28125,0.125 v -0.5625 l -0.84375,-0.15625 -0.4375,0.71875 -0.28125,-0.4375 -0.4375,0.15625 v -0.71875 l -2.3125,0.15625 z"
         id="svg_2"
         stroke-miterlimit="4"
         stroke-linejoin="round"
         stroke-linecap="round"
         stroke-width="1.175"
         stroke="#000000"
         fill-rule="evenodd"
         fill="none" />
    </symbol>
  </defs>
  <g
     style="fill:#007fb6;fill-opacity:1"
     transform="matrix(4.7880436,0,0,4.6112169,-409.51792,-649.6607)"
     id="g2381">
    <title
       id="title2377">Layer 1</title>
    <g
       style="fill:#007fb6;fill-opacity:1"
       transform="scale(0.333333)"
       id="svg_7">
      <path
         style="fill:#007fb6;fill-opacity:1"
         d="m 267.74283,425.00186 c -2.48669,35.26135 -5.07988,70.51518 -7.50005,105.78122 6.10244,2.83867 8.62066,14.71854 15.7557,6.47567 7.03778,3.76182 14.30004,3.52743 20.18042,9.05432 6.14115,3.0219 14.14079,12.96606 20.2379,5.24804 5.82085,-4.84646 12.35039,-9.31128 19.59095,-10.23808 3.26856,-5.20915 -10.05234,-1.34889 -3.08877,-5.25492 5.39393,-2.94389 13.76243,-6.51046 11.81293,3.30864 0.92269,7.52804 -12.60055,2.53694 -6.27936,7.73861 5.88711,7.16604 10.35613,-11.81054 14.82883,-2.10582 -5.02382,3.55261 -2.14175,10.81571 4.24801,9.42738 -0.82539,3.53151 2.96318,8.54492 6.69845,5.22104 1.96474,2.9729 3.82407,12.73624 6.12755,4.1292 3.08056,-6.16529 -6.94552,0.22625 -4.0756,-6.18776 7.46629,-1.06577 16.04953,-0.67838 21.66683,-7.24892 4.27053,-4.57912 10.75948,-8.25547 15.65631,-10.60172 -2.90201,1.04047 -13.26669,4.64409 -5.39111,0.82536 5.35206,-4.20315 15.49099,-0.75084 23.01551,-1.24317 7.24138,-0.66653 18.26034,4.91709 22.21531,-3.94612 -1.50473,-1.8762 6.9169,2.67001 2.95163,-1.52932 -11.701,-6.94642 -22.74498,-14.91839 -34.21405,-22.22874 4.74451,-5.76033 -0.21822,-15.04435 -1.03448,-20.76988 -5.93393,-5.06278 -13.56991,-0.78045 -20.15425,-0.60278 -6.66537,-3.40993 -12.68744,-3.64456 -19.91127,-4.11415 -6.75599,-3.25513 -13.30832,-8.90895 -21.40916,-5.80565 -1.85403,3.58723 -3.13697,8.33352 -8.12995,4.22881 -5.40373,-5.49917 -8.12077,-13.37956 -15.32604,-17.02517 -5.08325,-4.6327 -12.81233,-10.92314 -8.94105,-18.69248 -5.2891,-1.62111 -12.55384,-9.84339 -15.2849,-2.36459 -7.30327,-1.897 -3.02716,-13.76928 -10.72007,-16.73692 -6.693,-3.78609 -12.95526,2.93913 -19.04631,-2.8132 -1.5097,-0.60347 -3.01694,-1.21753 -4.47991,-1.9289 z"
         id="path2950" />
    </g>
  </g>
</svg>
